<!DOCTYPE svg PUBLIC "-//W3C//DTD SVG 20010904//EN" "http://www.w3.org/TR/2001/REC-SVG-20010904/DTD/svg10.dtd">
<svg version="1.0" xmlns="http://www.w3.org/2000/svg" width="278px" height="278px" viewBox="0 0 2780 2780" preserveAspectRatio="xMidYMid meet">
<g id="layer101" fill="#ff2c3f" stroke="none">
 <path d="M440 1983 c-25 -10 -30 -25 -30 -95 l0 -68 55 0 55 0 0 40 0 40 50 0 50 0 0 -38 c0 -37 -2 -39 -77 -82 -141 -79 -133 -68 -133 -170 0 -118 2 -120 167 -120 148 0 153 3 153 96 l0 64 -55 0 -55 0 0 -36 0 -35 -47 3 c-47 3 -48 4 -51 38 -2 34 -1 36 79 80 134 74 129 66 129 175 0 83 -2 96 -19 105 -20 10 -244 13 -271 3z"/>
 <path d="M865 1981 c-19 -8 -20 -20 -25 -202 l-5 -194 -27 -3 c-25 -3 -28 -7 -28 -42 0 -35 3 -39 28 -42 l27 -3 3 -323 2 -322 60 0 60 0 0 320 0 320 35 0 c35 0 35 0 35 44 0 43 -1 45 -32 48 l-33 3 -3 158 -3 157 41 0 40 0 0 45 0 45 -77 -1 c-43 0 -87 -4 -98 -8z"/>
 <path d="M1122 1974 c-22 -15 -22 -19 -22 -250 l0 -234 60 0 60 0 0 205 0 205 50 0 50 0 0 -205 0 -205 65 0 65 0 0 250 0 250 -64 0 c-35 0 -66 -4 -68 -10 -2 -6 -23 -6 -63 0 -82 14 -107 13 -133 -6z"/>
 <path d="M1575 1978 c-43 -23 -45 -33 -45 -245 l0 -203 26 -17 c17 -11 54 -18 110 -21 l84 -5 0 -71 0 -71 -131 3 c-106 3 -135 0 -155 -13 l-24 -15 0 -220 c0 -269 -13 -250 172 -250 167 0 168 1 168 138 0 128 -3 130 -130 134 l-95 3 0 65 0 65 50 0 c49 0 50 -1 53 -32 l3 -33 105 0 104 0 0 400 0 400 -60 0 c-44 0 -60 -4 -60 -14 0 -11 -9 -11 -57 0 -70 16 -92 17 -118 2z m142 -90 l33 -12 0 -148 0 -148 -38 0 c-21 0 -43 5 -50 12 -13 13 -18 262 -6 292 7 19 17 20 61 4z m-62 -888 l0 -55 -50 0 -50 0 -3 44 c-5 66 1 73 55 69 l48 -3 0 -55z"/>
 <path d="M1950 1740 l0 -250 60 0 60 0 0 250 0 250 -60 0 -60 0 0 -250z"/>
 <path d="M2182 1974 c-22 -15 -22 -19 -22 -234 l0 -220 24 -16 c35 -22 292 -17 306 6 5 8 10 115 10 238 l0 222 -26 10 c-14 6 -80 10 -147 10 -95 0 -128 -4 -145 -16z m198 -234 l0 -160 -50 0 -50 0 0 160 0 160 50 0 50 0 0 -160z"/>
 <path d="M1950 1350 l0 -60 60 0 60 0 0 60 0 60 -60 0 -60 0 0 -60z"/>
 <path d="M640 960 l0 -390 60 0 60 0 0 390 0 390 -60 0 -60 0 0 -390z"/>
 <path d="M1050 960 l0 -390 60 0 60 0 1 223 1 222 40 -82 40 -83 59 0 c46 0 59 3 59 15 0 9 -23 60 -52 113 l-52 98 62 128 c34 70 62 132 62 137 0 5 -29 9 -63 9 l-64 0 -44 -102 -44 -102 -3 102 -3 102 -59 0 -60 0 0 -390z"/>
 <path d="M840 705 l0 -55 60 0 60 0 0 55 0 55 -60 0 -60 0 0 -55z"/>
 </g>
<g id="layer102" fill="#fffefe" stroke="none">
 <path d="M440 1983 c-25 -10 -30 -25 -30 -95 l0 -68 55 0 55 0 0 40 0 40 50 0 50 0 0 -38 c0 -37 -2 -39 -77 -82 -141 -79 -133 -68 -133 -170 0 -118 2 -120 167 -120 148 0 153 3 153 96 l0 64 -55 0 -55 0 0 -36 0 -35 -47 3 c-47 3 -48 4 -51 38 -3 34 -1 36 79 80 134 73 129 66 129 175 0 83 -2 96 -19 105 -20 10 -244 13 -271 3z"/>
 <path d="M868 1983 c-10 -2 -19 -5 -20 -6 -1 -1 -4 -90 -7 -197 l-6 -195 -27 -3 c-25 -3 -28 -7 -28 -42 0 -35 3 -39 28 -42 l27 -3 3 -323 2 -322 60 0 60 0 0 320 0 320 35 0 c35 0 35 0 35 44 0 43 -1 45 -32 48 l-33 3 -3 158 -3 157 38 0 38 0 -3 45 -4 45 -72 -1 c-39 -1 -79 -3 -88 -6z"/>
 <path d="M1122 1974 c-22 -15 -22 -19 -22 -250 l0 -234 60 0 60 0 0 206 0 205 51 -3 50 -3 2 -200 2 -200 60 0 60 0 0 245 0 245 -59 3 c-33 2 -62 -1 -66 -7 -4 -7 -25 -7 -65 -1 -82 14 -107 13 -133 -6z"/>
 <path d="M1575 1978 c-43 -23 -45 -33 -45 -245 l0 -203 26 -16 c16 -11 56 -19 112 -23 l87 -6 3 -70 3 -70 -136 3 c-112 3 -140 1 -161 -12 l-24 -16 0 -220 c0 -269 -13 -250 172 -250 167 0 168 1 168 138 0 128 -3 130 -130 134 l-95 3 0 65 0 65 50 0 c49 0 50 -1 53 -32 l3 -33 105 0 104 0 0 400 0 400 -55 0 c-38 0 -57 -4 -61 -14 -4 -11 -14 -11 -62 0 -69 16 -91 17 -117 2z m142 -90 l33 -12 0 -148 0 -148 -38 0 c-21 0 -43 5 -50 12 -13 13 -18 262 -6 292 7 19 17 20 61 4z m-62 -888 l0 -55 -50 0 -50 0 -3 44 c-5 66 1 73 55 69 l48 -3 0 -55z"/>
 <path d="M1950 1740 l0 -250 60 0 60 0 0 250 0 250 -60 0 -60 0 0 -250z"/>
 <path d="M2183 1975 c-23 -16 -23 -19 -23 -235 l0 -220 24 -16 c35 -22 292 -17 306 6 13 20 13 440 0 460 -14 23 -276 27 -307 5z m201 -91 c8 -20 8 -268 0 -288 -4 -12 -20 -16 -55 -16 l-49 0 0 160 0 160 49 0 c35 0 51 -4 55 -16z"/>
 <path d="M640 960 l0 -390 60 0 60 0 0 390 0 390 -60 0 -60 0 0 -390z"/>
 <path d="M1050 960 l0 -390 60 0 60 0 1 228 0 227 41 -87 41 -88 58 0 c33 0 59 4 59 10 0 5 -23 57 -52 114 l-52 105 62 128 c34 71 62 132 62 136 0 4 -28 7 -62 7 l-63 0 -47 -108 -47 -107 -1 108 0 107 -60 0 -60 0 0 -390z"/>
 <path d="M840 705 l0 -55 60 0 60 0 0 55 0 55 -60 0 -60 0 0 -55z"/>
 </g>

</svg>